<?xml version="1.0" encoding="utf-8"?>
<!-- Generator: Adobe Illustrator 24.3.0, SVG Export Plug-In . SVG Version: 6.00 Build 0)  -->
<svg version="1.1" id="Layer_2" xmlns="http://www.w3.org/2000/svg" xmlns:xlink="http://www.w3.org/1999/xlink" x="0px" y="0px"
	 viewBox="0 0 64 64" enable-background="new 0 0 64 64" xml:space="preserve">
<polygon fill="#E3E1E2" points="41,13 37,13 23,13 23,19 41,19 "/>
<path fill="#FCC03D" d="M43,12v7h11V8H38v3h4C42.6,11,43,11.4,43,12z"/>
<polygon fill="#22C0FF" points="57.7,24 51,24 51,29 56.1,29 "/>
<polygon fill="#22C0FF" points="53.1,39 51,39 51,45 51.3,45 "/>
<rect x="43" y="31" fill="#22C0FF" width="6" height="6"/>
<rect x="43" y="24" fill="#22C0FF" width="6" height="5"/>
<polygon fill="#22C0FF" points="55.5,31 51,31 51,37 53.7,37 "/>
<polygon fill="#22C0FF" points="21,37 25,37 25,31 18.9,31 "/>
<polygon fill="#22C0FF" points="23.7,45 25,45 25,39 21.6,39 "/>
<rect x="43" y="39" fill="#22C0FF" width="6" height="6"/>
<rect x="27" y="39" fill="#22C0FF" width="6" height="6"/>
<polygon fill="#22C0FF" points="25,29 25,24 16.5,24 18.2,29 "/>
<rect x="27" y="24" fill="#22C0FF" width="6" height="5"/>
<rect x="27" y="31" fill="#22C0FF" width="6" height="6"/>
<rect x="35" y="39" fill="#22C0FF" width="6" height="6"/>
<rect x="35" y="24" fill="#22C0FF" width="6" height="5"/>
<rect x="35" y="31" fill="#22C0FF" width="6" height="6"/>
<path d="M16.4,30c0,0.1,0,0.2,0,0.3l2.8,8c0,0,0,0.1,0.1,0.1l2.7,7.7V53c0,0.6,0.4,1,1,1h3c-0.6,0.8-1,1.9-1,3c0,2.8,2.2,5,5,5
	s5-2.2,5-5c0-1.1-0.4-2.2-1-3H42c-0.6,0.8-1,1.9-1,3c0,2.8,2.2,5,5,5s5-2.2,5-5c0-1.1-0.4-2.2-1-3h2v-2H24v-5h28
	c0.4,0,0.8-0.3,1-0.7l4.3-14.2l0.6-1.8c0,0,0,0,0,0l2.1-7c0.1-0.3,0-0.6-0.2-0.9C59.6,22.1,59.3,22,59,22H15.8l-1.8-5.3
	C13.8,16.3,13.4,16,13,16H4v2h8.3L16.4,30z M30,60c-1.7,0-3-1.3-3-3c0-1.3,0.8-2.4,2-2.8V57h2v-2.8c1.2,0.4,2,1.5,2,2.8
	C33,58.7,31.7,60,30,60z M46,60c-1.7,0-3-1.3-3-3c0-1.3,0.8-2.4,2-2.8V57h2v-2.8c1.2,0.4,2,1.5,2,2.8C49,58.7,47.7,60,46,60z
	 M53.7,37H51v-6h4.5L53.7,37z M49,37h-6v-6h6V37z M35,39h6v6h-6V39z M33,45h-6v-6h6V45z M35,37v-6h6v6H35z M43,39h6v6h-6V39z M43,29
	v-5h6v5H43z M41,29h-6v-5h6V29z M33,29h-6v-5h6V29z M33,31v6h-6v-6H33z M25,37h-4l-2.1-6H25V37z M21.6,39H25v6h-1.3L21.6,39z
	 M51.3,45H51v-6h2.1L51.3,45z M56.1,29H51v-5h6.7L56.1,29z M25,24v5h-6.8l-1.7-5H25z"/>
<path d="M22,21h20h13c0.6,0,1-0.4,1-1V7c0-0.6-0.4-1-1-1H37c-0.6,0-1,0.4-1,1v4H22c-0.6,0-1,0.4-1,1v8C21,20.6,21.4,21,22,21z M38,8
	h16v11H43v-7c0-0.6-0.4-1-1-1h-4V8z M23,13h18v6H23V13z"/>
</svg>
